<?xml version="1.0" encoding="utf-8"?>
<!-- Generator: Adobe Illustrator 22.0.0, SVG Export Plug-In . SVG Version: 6.00 Build 0)  -->
<svg version="1.1" id="图层_1" xmlns="http://www.w3.org/2000/svg" xmlns:xlink="http://www.w3.org/1999/xlink" x="0px" y="0px"
	 viewBox="0 0 4056.1 1000" style="enable-background:new 0 0 4056.1 1000;" xml:space="preserve">
<style type="text/css">
	.st0{fill:#E6F4FF;}
	.st1{fill:#220C5F;}
	.st2{clip-path:url(#SVGID_2_);}
	.st3{fill:#18004C;}
	.st4{fill:url(#SVGID_3_);}
	.st5{fill:url(#SVGID_4_);}
	.st6{clip-path:url(#SVGID_6_);fill:#0A001B;}
	.st7{fill:url(#SVGID_7_);}
	.st8{fill:url(#SVGID_8_);}
	.st9{fill:url(#SVGID_9_);}
	.st10{fill:url(#SVGID_10_);}
	.st11{fill:url(#SVGID_11_);}
	.st12{fill:url(#SVGID_12_);}
	.st13{fill:url(#SVGID_13_);}
	.st14{fill:url(#SVGID_14_);}
	.st15{fill:url(#SVGID_15_);}
	.st16{fill:url(#SVGID_16_);}
	.st17{fill:url(#SVGID_17_);}
	.st18{fill:url(#SVGID_18_);}
	.st19{fill:url(#SVGID_19_);}
	.st20{fill:#FFFFFF;}
	.st21{fill:url(#SVGID_20_);}
	.st22{fill:url(#SVGID_21_);}
	.st23{fill:url(#SVGID_22_);}
	.st24{fill:url(#SVGID_23_);}
	.st25{fill:url(#SVGID_24_);}
	.st26{fill:url(#SVGID_25_);}
	.st27{fill:url(#SVGID_26_);}
	.st28{fill:url(#SVGID_27_);}
	.st29{fill:url(#SVGID_28_);}
	.st30{fill:url(#SVGID_29_);}
	.st31{fill:url(#SVGID_30_);}
	.st32{fill:url(#SVGID_31_);}
	.st33{fill:url(#SVGID_32_);}
	.st34{fill:url(#SVGID_33_);}
	.st35{fill:url(#SVGID_34_);}
	.st36{fill:url(#SVGID_35_);}
	.st37{fill:url(#SVGID_36_);}
	.st38{fill:url(#SVGID_37_);}
	.st39{fill:url(#SVGID_38_);}
	.st40{fill:url(#SVGID_39_);}
	.st41{fill:url(#SVGID_40_);}
	.st42{fill:#5123AF;}
	.st43{fill:url(#SVGID_41_);}
	.st44{fill:url(#SVGID_42_);}
	.st45{fill:url(#SVGID_43_);}
	.st46{fill:url(#SVGID_44_);}
	.st47{fill:url(#SVGID_45_);}
	.st48{fill:url(#SVGID_46_);}
	.st49{fill:url(#SVGID_47_);}
	.st50{opacity:0.1;}
	.st51{font-family:'STHupo';}
	.st52{font-size:654.5816px;}
</style>
<rect class="st0" width="4056.1" height="1000"/>
<path class="st1" d="M3118.9,276.1c94.6,56.6,274.6-81.4,350.6,107.7c60.3,150.3,8.3,488.8-507.9,511.4c0,0-138,8.9-255.3-158.2
	c-117.3-167-197.3-245.7-154.6-404.3c42.8-158.8,220.8-211.2,299.5-193.2C2929.7,157.5,2936.7,167.1,3118.9,276.1z"/>
<g>
	<g>
		<defs>
			<path id="SVGID_1_" d="M3118.9,276.1c94.6,56.6,274.6-81.4,350.6,107.7c60.3,150.3,8.3,488.8-507.9,511.4
				c0,0-138,8.9-255.3-158.2c-117.3-167-197.3-245.7-154.6-404.3c42.8-158.8,220.8-211.2,299.5-193.2
				C2929.7,157.5,2936.7,167.1,3118.9,276.1z"/>
		</defs>
		<clipPath id="SVGID_2_">
			<use xlink:href="#SVGID_1_"  style="overflow:visible;"/>
		</clipPath>
		<g class="st2">
			<path class="st3" d="M2984.9,689.6l80.5-94.5l9.2,8.4l30.5-36.1c0,0,25-9.2,45.3-24.1l57.4,51.8h23.1l90.7,81.4l-63.8,119.4
				h-58.4h-296.3L2984.9,689.6z"/>
			
				<linearGradient id="SVGID_3_" gradientUnits="userSpaceOnUse" x1="2875.6851" y1="266.1249" x2="2875.6851" y2="464.9809" gradientTransform="matrix(1 0 0 -1 0 1000)">
				<stop  offset="0" style="stop-color:#160046"/>
				<stop  offset="0.9996" style="stop-color:#4E1A94"/>
			</linearGradient>
			<path class="st4" d="M3071,795.9l-94.5-142.6l-95.3-58.4l-14.8,14.8l-6.4-6.4c0,0-63.8,58.4-99.1,90.7
				c-35.1,32.5-80.5,101.9-80.5,101.9H3071z"/>
			
				<linearGradient id="SVGID_4_" gradientUnits="userSpaceOnUse" x1="3217.2866" y1="262.4608" x2="3217.2866" y2="461.3168" gradientTransform="matrix(1 0 0 -1 0 1000)">
				<stop  offset="0" style="stop-color:#160046"/>
				<stop  offset="0.9996" style="stop-color:#4E1A94"/>
			</linearGradient>
			<polygon class="st5" points="3057.7,775.9 3137.6,689.6 3176.5,682.2 3206.2,646.1 3214.4,653.5 3219,646.1 3300.6,604.4 
				3372.7,654.3 3389.5,795.9 3045.1,795.9 			"/>
		</g>
	</g>
	<g>
		<defs>
			<path id="SVGID_5_" d="M3118.9,276.1c94.6,56.6,274.6-81.4,350.6,107.7c60.3,150.3,8.3,488.8-507.9,511.4
				c0,0-138,8.9-255.3-158.2c-117.3-167-197.3-245.7-154.6-404.3c42.8-158.8,220.8-211.2,299.5-193.2
				C2929.7,157.5,2936.7,167.1,3118.9,276.1z"/>
		</defs>
		<clipPath id="SVGID_6_">
			<use xlink:href="#SVGID_5_"  style="overflow:visible;"/>
		</clipPath>
		<rect x="2736.8" y="795.9" class="st6" width="618" height="103.8"/>
	</g>
</g>
<g>
	
		<linearGradient id="SVGID_7_" gradientUnits="userSpaceOnUse" x1="3123.3281" y1="685.8935" x2="3247.9807" y2="613.1794" gradientTransform="matrix(-1 0 0 -1 6066.9517 1000)">
		<stop  offset="0" style="stop-color:#F8B62D"/>
		<stop  offset="1" style="stop-color:#FAEE00"/>
	</linearGradient>
	<path class="st7" d="M2774.4,370.2c0,0,0,9.8,11.7,17.1c11.7,7.3,21,1.2,26.7,15.9c5.8,14.7,30.1,18.7,45.5,12.6
		c15.4-6.1,16.9-1,24.9,4.4c8,5.3,44.4,17.9,59.2-8.4c14.8-26.3-4.5-34.3-17.3-41.8c-12.8-7.5-14-10.8-16.7-19.8
		c-2.7-8.9-14.8-17.3-37.2-14.6c-22.4,2.7-32.2,5.1-40.5-8.6c-8.4-13.7-21.2-11.1-30.4-5.3c-9.2,5.7-11.3,6.6-22.6,1.8
		c-11.3-4.7-14.8-6.8-22-1.8C2748.6,326.9,2774.4,370.2,2774.4,370.2z"/>
	
		<linearGradient id="SVGID_8_" gradientUnits="userSpaceOnUse" x1="3279.6375" y1="557.7251" x2="3312.554" y2="587.6848" gradientTransform="matrix(-1 0 0 -1 6066.9517 1000)">
		<stop  offset="0" style="stop-color:#FFB0A5"/>
		<stop  offset="1" style="stop-color:#FBD0CE"/>
	</linearGradient>
	<path class="st8" d="M2751,331.9c0,0-6-1.2-14,13.7c-6,11.1-14.6,11.1-14.6,11.1s1.8,3.9,7.3,5.5c0,0,0,3.4-0.6,6
		c-0.6,2.6-1.8,18,11.7,15.6c0,0-2.3,11.7-2.8,22.2c-0.5,8.3-0.1,12-0.4,16.7c-0.7,10.2-9.7,27.6-16,34.5
		c-6.3,6.9,12.6,2.3,25.9-8.1c13.3-10.5,17.6-25,17.6-25s-10.5-6.9-10.5-20.7s4-22.2,5-23.8c1-1.6,6.1-2.6,13.3-7.7
		C2780.1,366.7,2762.6,337.4,2751,331.9z"/>
	
		<radialGradient id="SVGID_9_" cx="3302.8064" cy="657.8423" r="28.6084" gradientTransform="matrix(-1 0 0 -1 6066.9517 1000)" gradientUnits="userSpaceOnUse">
		<stop  offset="0" style="stop-color:#FF6783"/>
		<stop  offset="1" style="stop-color:#FF3B74"/>
	</radialGradient>
	<path class="st9" d="M2791.7,356.2c0,0-6.3,15.1-19,15.4c0,0-7.4-6.4-13.4-20.8s-8.3-19-8.3-19s-6.9-0.5-14,13.7
		c0,0,1.6-15,8.6-23.1c0,0-9.5,1.6-9.2-5c0.4-6.6,10-7.4,15.3,2.6c0,0,1.3-6.3,7.3-5.7c5.5,0.6,12.5,5,9,10.8
		c-2.2,3.6-7.1,1.7-7.1,1.7S2771.7,342.3,2791.7,356.2z"/>
	
		<linearGradient id="SVGID_10_" gradientUnits="userSpaceOnUse" x1="3396.2139" y1="481.2373" x2="3396.2139" y2="524.2672" gradientTransform="matrix(-1 0 0 -1 6066.9517 1000)">
		<stop  offset="0" style="stop-color:#FFB0A5"/>
		<stop  offset="1" style="stop-color:#FBD0CE"/>
	</linearGradient>
	<path class="st10" d="M2710.9,474.3c-0.5,0.7-18.6,20.4-24.2,20.7c-3.9,0.1-18.7-16.8-27.1-28c-8.4-11.2-14-20.3-16.9-28
		c-2.9-7.7-6-20.7-15-21.3c-9-0.6-10.3,10-4,16.8c6.3,6.8,9.1,9.4,9.1,9.4s9.6,21.6,19.7,41.7c10.1,20.1,20.7,36.2,26.3,36.2
		c5.6-0.1,34.8-18.2,41.3-26.4C2726.5,487.3,2710.9,474.3,2710.9,474.3z"/>
	
		<linearGradient id="SVGID_11_" gradientUnits="userSpaceOnUse" x1="3322.092" y1="460.107" x2="3322.092" y2="482.5829" gradientTransform="matrix(-1 0 0 -1 6066.9517 1000)">
		<stop  offset="0" style="stop-color:#FFB0A5"/>
		<stop  offset="1" style="stop-color:#FBD0CE"/>
	</linearGradient>
	<path class="st11" d="M2717.2,496.5c0,0-1.9,21.6,4.4,40.7c4.3,12.9,51.2-7.9,51.2-7.9s-10.2,1.6-9.4-27.6
		C2764.3,472.5,2717.2,496.5,2717.2,496.5z"/>
	
		<radialGradient id="SVGID_12_" cx="3295.4399" cy="560.4736" r="54.2155" gradientTransform="matrix(-1 0 0 -1 6066.9517 1000)" gradientUnits="userSpaceOnUse">
		<stop  offset="0" style="stop-color:#FF6783"/>
		<stop  offset="1" style="stop-color:#FF3B74"/>
	</radialGradient>
	<path class="st12" d="M2790.2,438.8c0,0-22-13.4-26.4-15.6c0,0-2.7,13.9-16.4,22.9c-13.7,9-20.7,9.7-24.2,10.5
		c-3.6,0.7-15.3,7.1-15.3,20.4c0,13.3,4,21,9.2,26.1c5.2,5.1,12.8,6.3,26.1,6.3s18.6,0.2,20.5-8.9s10-25.8,17.9-28.9
		C2789.6,468.3,2790.2,438.8,2790.2,438.8z"/>
	
		<linearGradient id="SVGID_13_" gradientUnits="userSpaceOnUse" x1="3184.0706" y1="501.1468" x2="3291.4006" y2="501.1468" gradientTransform="matrix(-1 0 0 -1 6066.9517 1000)">
		<stop  offset="0" style="stop-color:#FFB0A5"/>
		<stop  offset="1" style="stop-color:#FBD0CE"/>
	</linearGradient>
	<path class="st13" d="M2773.5,454.7c1.7-11.4,11.8-22.5,42.8-11.8c31,10.7,57.9,28.4,57.6,33.6c-0.2,5.1-10.2,12.8-41.5,36.8
		c-31.2,24.1-31.5,24.1-36.6,29.2c-5.1,5.1-18.2,16.7-22.2,16.7s-10.7-8.8-4.1-14.6c6.6-5.8,22.9-10,22.9-10l42.3-51.4
		C2834.4,483.2,2769.1,484.5,2773.5,454.7z"/>
	
		<radialGradient id="SVGID_14_" cx="3391.7327" cy="360.6554" r="64.7951" gradientTransform="matrix(-1 0 0 -1 6066.9517 1000)" gradientUnits="userSpaceOnUse">
		<stop  offset="0" style="stop-color:#FFB0A5"/>
		<stop  offset="1" style="stop-color:#FBD0CE"/>
	</radialGradient>
	<path class="st14" d="M2726.3,629.9c0,0-51.9,2.8-68.7,1.3c0,0,2.9,6.9,8,16s23.2,54.5,28.6,82.9s7.8,69.2,7.8,69.2s0.2,1-7.1-1.7
		c-7.2-2.6-20.5-7.8-31.2-10.3c-10.7-2.6-15.3-4.6-15.2-8.5s6.8-4.3,18.5-2.9c11.7,1.3,18.7,1.8,18.7,1.8s-5.7-6.4-22-29.4
		c-16.3-23-40.4-59.2-53.9-87.6c-13.5-28.4-16.7-40.8-16.7-52.4s-2.2-24.3,72.5-47.2l47.3,10.1L2726.3,629.9z"/>
	
		<radialGradient id="SVGID_15_" cx="3294.6177" cy="398.7964" r="85.8465" gradientTransform="matrix(-1 0 0 -1 6066.9517 1000)" gradientUnits="userSpaceOnUse">
		<stop  offset="0" style="stop-color:#FFB0A5"/>
		<stop  offset="1" style="stop-color:#FBD0CE"/>
	</radialGradient>
	<path class="st15" d="M2808.8,587.5c0,0,1.5,5.7,9.6,21.9c8,16.2,25.4,44.9,26.3,62.2c0,0,32.6,19.7,52.9,37.7s47.5,46.9,50.6,53.2
		c0,0,15.9-1.2,17.1,1.3c1.2,2.6,0.9,12.3-4,27.2c-4.9,15-11.9,27-14.7,26.3c-2.8-0.6-0.1-20.5-0.5-29.7c-0.4-9.1-1.5-15.2-1.5-15.2
		s-31.4-4.7-84-31.6c-52.8-26.7-72.6-45-95.1-71.7s-27.4-42.1-30.3-42.1C2732.3,627.1,2808.8,587.5,2808.8,587.5z"/>
	
		<linearGradient id="SVGID_16_" gradientUnits="userSpaceOnUse" x1="3253.4758" y1="387.379" x2="3331.7273" y2="387.379" gradientTransform="matrix(-1 0 0 -1 6066.9517 1000)">
		<stop  offset="0" style="stop-color:#200B5D"/>
		<stop  offset="1" style="stop-color:#3B1A94"/>
	</linearGradient>
	<path class="st16" d="M2809.2,589.2c0.6,1.7,1.8,5,4.1,10.1c-4.5,6.9-14.1,17.7-32.6,25.9c-17.9,7.9-31.4,10.2-39,10.9
		c-3.5-5.8-5.2-9-6.6-9c-2.6,0,53.6-29.2,69.4-37.4C2806.5,589.4,2808.2,589.3,2809.2,589.2z"/>
	
		<linearGradient id="SVGID_17_" gradientUnits="userSpaceOnUse" x1="3314.085" y1="387.7684" x2="3324.9863" y2="429.1505" gradientTransform="matrix(-1 0 0 -1 6066.9517 1000)">
		<stop  offset="0" style="stop-color:#441DAC"/>
		<stop  offset="1" style="stop-color:#57449C"/>
	</linearGradient>
	<path class="st17" d="M2770.5,528c0,0-27.5,13.5-49.8,7.3l0.9,12.8c0,0-40.5,2.4-55.8,12.9c0,0,19.2,8.3,36,28.8
		c14.1,17.1,10.8,41.3,10.8,41.3s70.4-3.5,93.5-34.3C2829.1,566.2,2802,527.8,2770.5,528z"/>
	
		<linearGradient id="SVGID_18_" gradientUnits="userSpaceOnUse" x1="3402.3672" y1="447.0681" x2="3402.3672" y2="447.0681" gradientTransform="matrix(-1 0 0 -1 6066.9517 1000)">
		<stop  offset="0" style="stop-color:#200B5D"/>
		<stop  offset="1" style="stop-color:#3B1A94"/>
	</linearGradient>
	<path class="st18" d="M2664.6,552.9"/>
	
		<linearGradient id="SVGID_19_" gradientUnits="userSpaceOnUse" x1="3347.6116" y1="405.614" x2="3401.2729" y2="405.614" gradientTransform="matrix(-1 0 0 -1 6066.9517 1000)">
		<stop  offset="0" style="stop-color:#200B5D"/>
		<stop  offset="1" style="stop-color:#3B1A94"/>
	</linearGradient>
	<path class="st19" d="M2701.7,589.9c-16.8-20.5-36-28.8-36-28.8c1.9-1.3,4.3-2.6,6.8-3.5c9.7,4.5,27.6,15.2,38.9,35.6
		c9.5,17.1,8.8,30,6.6,37.7c-3.4,0.4-5.5,0.4-5.5,0.4S2715.8,607,2701.7,589.9z"/>
	<circle class="st20" cx="2761.7" cy="371.7" r="3.2"/>
	<path class="st20" d="M2762.3,421.5l-1.3-1.3c0,0,1-9.6,2.3-24.2c1.3-14.2-2.3-23-2.3-23.1l1.6-0.6c0.1,0.4,3.8,9.2,2.4,23.8
		C2763.5,410.8,2762.3,421.5,2762.3,421.5z"/>
</g>
<radialGradient id="SVGID_20_" cx="3182.0032" cy="738.0554" r="172.3026" gradientTransform="matrix(1 0 0 -1 0 1000)" gradientUnits="userSpaceOnUse">
	<stop  offset="0.3309" style="stop-color:#FAEE00"/>
	<stop  offset="1" style="stop-color:#EFA902"/>
</radialGradient>
<circle class="st21" cx="3206.4" cy="289.9" r="104.1"/>
<linearGradient id="SVGID_21_" gradientUnits="userSpaceOnUse" x1="3262.7124" y1="601.4934" x2="3262.7124" y2="646.1016" gradientTransform="matrix(1 0 0 -1 0 1000)">
	<stop  offset="0" style="stop-color:#441DAC"/>
	<stop  offset="1" style="stop-color:#9F6095"/>
</linearGradient>
<path class="st22" d="M3093.5,402.9c-2.9,1.1,337.7,0,337.7,0s10.5-11.9-44.7-9.8c0,0,11.9-28.6-14.1-28.6c0,0-5.2-30.8-34.9-30.8
	s-92.6,43.2-92.6,43.2s6.8-12.5-9.8-12.5c-16.7,0-35.4,21.9-46.8,22.4C3188.3,386.8,3179.4,371.7,3093.5,402.9z"/>
<linearGradient id="SVGID_22_" gradientUnits="userSpaceOnUse" x1="2554.054" y1="654.3746" x2="2554.054" y2="686.572" gradientTransform="matrix(1 0 0 -1 0 1000)">
	<stop  offset="0" style="stop-color:#441DAC"/>
	<stop  offset="1" style="stop-color:#9F6095"/>
</linearGradient>
<path class="st23" d="M2431.9,348.8c-2.1,0.7,243.7,0,243.7,0s7.5-8.6-32.3-7.2c0,0,8.6-20.7-10.1-20.7c0,0-3.8-22.1-25.2-22.1
	s-66.9,31.1-66.9,31.1s4.9-9-7.2-9c-12,0-25.5,15.8-33.8,16.2C2500.2,337.2,2493.8,326.2,2431.9,348.8z"/>
<linearGradient id="SVGID_23_" gradientUnits="userSpaceOnUse" x1="3497.1487" y1="496.9703" x2="3497.1487" y2="520.5805" gradientTransform="matrix(1 0 0 -1 0 1000)">
	<stop  offset="0" style="stop-color:#441DAC"/>
	<stop  offset="1" style="stop-color:#9F6095"/>
</linearGradient>
<path class="st24" d="M3407.6,505.4c-1.6,0.6,178.7,0,178.7,0s5.5-6.3-23.7-5.2c0,0,6.3-15.2-7.4-15.2c0,0-2.8-16.3-18.5-16.3
	c-15.7,0-49,22.9-49,22.9s3.5-6.6-5.2-6.6c-8.9,0-18.7,11.5-24.8,11.8C3457.7,496.8,3453.1,488.9,3407.6,505.4z"/>
<linearGradient id="SVGID_24_" gradientUnits="userSpaceOnUse" x1="3037.3843" y1="468.4186" x2="3037.3843" y2="492.0288" gradientTransform="matrix(1 0 0 -1 0 1000)">
	<stop  offset="0" style="stop-color:#441DAC"/>
	<stop  offset="1" style="stop-color:#9F6095"/>
</linearGradient>
<path class="st25" d="M2947.8,533.8c-1.6,0.6,178.7,0,178.7,0s5.5-6.3-23.7-5.2c0,0,6.3-15.2-7.4-15.2c0,0-2.8-16.3-18.5-16.3
	c-15.7,0-49,22.9-49,22.9s3.5-6.6-5.2-6.6c-8.9,0-18.7,11.5-24.8,11.8C2998,525.3,2993.3,517.4,2947.8,533.8z"/>
<g>
	
		<linearGradient id="SVGID_25_" gradientUnits="userSpaceOnUse" x1="3307.5852" y1="209.3982" x2="3249.9587" y2="321.2899" gradientTransform="matrix(1 0 0 -1 0 1000)">
		<stop  offset="0" style="stop-color:#200B5D"/>
		<stop  offset="1" style="stop-color:#3B1A94"/>
	</linearGradient>
	<path class="st26" d="M3301.1,813.4c0,0-44.3-12-68.2-33.7c-23.9-21.8,11.2-38.2,10.5-47.9c-0.7-9.7-30.8-54-12-67.5
		c18.7-13.5,33.7,14.2,44.3,12.8c10.5-1.5,18-39.8,32.2-23.2c14.2,16.5,33.4,100.5,15.7,127.4
		C3305.7,808.2,3301.1,813.4,3301.1,813.4z"/>
	
		<linearGradient id="SVGID_26_" gradientUnits="userSpaceOnUse" x1="3299.6028" y1="223.5513" x2="3258.073" y2="304.1885" gradientTransform="matrix(1 0 0 -1 0 1000)">
		<stop  offset="0" style="stop-color:#441DAC"/>
		<stop  offset="1" style="stop-color:#036EB8"/>
	</linearGradient>
	<path class="st27" d="M3246,684.6c0,0,34.5,34,63.3,100.9"/>
	
		<linearGradient id="SVGID_27_" gradientUnits="userSpaceOnUse" x1="3305.5828" y1="265.7896" x2="3287.6448" y2="300.619" gradientTransform="matrix(1 0 0 -1 0 1000)">
		<stop  offset="0" style="stop-color:#441DAC"/>
		<stop  offset="1" style="stop-color:#036EB8"/>
	</linearGradient>
	<path class="st28" d="M3290.9,747.8c0,0,14.6-42.1,10.8-63.2"/>
	
		<linearGradient id="SVGID_28_" gradientUnits="userSpaceOnUse" x1="3277.5767" y1="218.4551" x2="3266.1658" y2="240.6107" gradientTransform="matrix(1 0 0 -1 0 1000)">
		<stop  offset="0" style="stop-color:#441DAC"/>
		<stop  offset="1" style="stop-color:#036EB8"/>
	</linearGradient>
	<path class="st29" d="M3241.7,767.3c0,0,20.7,10.1,60.1,5.7"/>
	
		<linearGradient id="SVGID_29_" gradientUnits="userSpaceOnUse" x1="3396.1216" y1="375.477" x2="3373.1382" y2="511.1888" gradientTransform="matrix(1 0 0 -1 0 1000)">
		<stop  offset="0" style="stop-color:#2C007D"/>
		<stop  offset="1" style="stop-color:#036EB8"/>
	</linearGradient>
	<path class="st30" d="M3306.8,682c0,0-5.5-76.1,0-102.8c5.5-26.9,19.1-62.4,68.9-20.3c0,0,28.6-108.9,70.1-99.6
		c41.6,9.4,33.9,88.1,0,144.4c-33.9,56.4-109,125.6-109,125.6L3306.8,682z"/>
	
		<linearGradient id="SVGID_30_" gradientUnits="userSpaceOnUse" x1="3425.8037" y1="439.2892" x2="3414.5139" y2="505.9535" gradientTransform="matrix(1 0 0 -1 0 1000)">
		<stop  offset="0" style="stop-color:#2C007D"/>
		<stop  offset="1" style="stop-color:#036EB8"/>
	</linearGradient>
	<path class="st31" d="M3445.3,479.5c0,0-23.6,88.6-44.1,131.9"/>
	
		<linearGradient id="SVGID_31_" gradientUnits="userSpaceOnUse" x1="3347.498" y1="372.3568" x2="3338.9331" y2="422.9303" gradientTransform="matrix(1 0 0 -1 0 1000)">
		<stop  offset="0" style="stop-color:#2C007D"/>
		<stop  offset="1" style="stop-color:#036EB8"/>
	</linearGradient>
	<path class="st32" d="M3336.8,570.3c0,0,17.9,61.9,14.5,91.9"/>
	
		<linearGradient id="SVGID_32_" gradientUnits="userSpaceOnUse" x1="3440.3594" y1="361.5201" x2="3485.3037" y2="455.1543" gradientTransform="matrix(1 0 0 -1 0 1000)">
		<stop  offset="0" style="stop-color:#172A88"/>
		<stop  offset="0.7904" style="stop-color:#006E7A"/>
		<stop  offset="1" style="stop-color:#60A5AC"/>
	</linearGradient>
	<path class="st33" d="M3293.6,813.4c0,0,83.2-4.5,133.4-41.2s23.9-67.8-7.5-54.7c0,0,57-36.7,55.4-113.1c-1.5-76.5-15-66.6-18-66.6
		c-3,0-32.2,8.3-56.2,68.9S3293.6,813.4,3293.6,813.4z"/>
	
		<linearGradient id="SVGID_33_" gradientUnits="userSpaceOnUse" x1="3375.627" y1="354.7384" x2="3455.3748" y2="354.7384" gradientTransform="matrix(1 0 0 -1 0 1000)">
		<stop  offset="0" style="stop-color:#172A88"/>
		<stop  offset="0.7904" style="stop-color:#006E7A"/>
		<stop  offset="1" style="stop-color:#60A5AC"/>
	</linearGradient>
	<path class="st34" d="M3455.4,555.5c0,0-35.9,123.1-79.7,179.6"/>
	
		<linearGradient id="SVGID_34_" gradientUnits="userSpaceOnUse" x1="3356.4417" y1="201.9179" x2="3356.4417" y2="343.3119" gradientTransform="matrix(1 0 0 -1 0 1000)">
		<stop  offset="0" style="stop-color:#441DAC"/>
		<stop  offset="1" style="stop-color:#036EB8"/>
	</linearGradient>
	<path class="st35" d="M3293.6,813.4c0,0,29.2-127.4,40.5-158.8c11.2-31.5,35.3-67.5,62.1-61.4c27,6,29.9,63,11.2,103.3
		C3388.6,737.1,3343.8,794.7,3293.6,813.4z"/>
	
		<linearGradient id="SVGID_35_" gradientUnits="userSpaceOnUse" x1="3371.239" y1="247.4276" x2="3324.5283" y2="338.1241" gradientTransform="matrix(1 0 0 -1 0 1000)">
		<stop  offset="0" style="stop-color:#200B5D"/>
		<stop  offset="1" style="stop-color:#3B1A94"/>
	</linearGradient>
	<path class="st36" d="M3392.5,607.3c0,0-46.1,123.4-90.8,196.9"/>
	
		<linearGradient id="SVGID_36_" gradientUnits="userSpaceOnUse" x1="3386.9341" y1="323.9673" x2="3383.2749" y2="331.0724" gradientTransform="matrix(1 0 0 -1 0 1000)">
		<stop  offset="0" style="stop-color:#200B5D"/>
		<stop  offset="1" style="stop-color:#3B1A94"/>
	</linearGradient>
	<path class="st37" d="M3368.9,686.5c0,0,20.7-10.6,32.2-28.3"/>
	
		<linearGradient id="SVGID_37_" gradientUnits="userSpaceOnUse" x1="3360.6587" y1="269.242" x2="3356.845" y2="276.6469" gradientTransform="matrix(1 0 0 -1 0 1000)">
		<stop  offset="0" style="stop-color:#200B5D"/>
		<stop  offset="1" style="stop-color:#3B1A94"/>
	</linearGradient>
	<path class="st38" d="M3336.8,744.2c0,0,34-14.8,43.6-34.5"/>
	
		<linearGradient id="SVGID_38_" gradientUnits="userSpaceOnUse" x1="3354.7327" y1="313.5669" x2="3342.3838" y2="337.5436" gradientTransform="matrix(1 0 0 -1 0 1000)">
		<stop  offset="0" style="stop-color:#200B5D"/>
		<stop  offset="1" style="stop-color:#3B1A94"/>
	</linearGradient>
	<path class="st39" d="M3345.5,655.7c0,0-0.5,22.6,5.7,36.7"/>
	
		<linearGradient id="SVGID_39_" gradientUnits="userSpaceOnUse" x1="3328.0811" y1="234.328" x2="3314.7454" y2="260.221" gradientTransform="matrix(1 0 0 -1 0 1000)">
		<stop  offset="0" style="stop-color:#200B5D"/>
		<stop  offset="1" style="stop-color:#3B1A94"/>
	</linearGradient>
	<path class="st40" d="M3324.3,729.3c0,0-10.1,35.5-6.2,46.1"/>
	
		<linearGradient id="SVGID_40_" gradientUnits="userSpaceOnUse" x1="3330.6472" y1="234.6915" x2="3437.1396" y2="234.6915" gradientTransform="matrix(1 0 0 -1 0 1000)">
		<stop  offset="0" style="stop-color:#172A88"/>
		<stop  offset="0.7904" style="stop-color:#006E7A"/>
		<stop  offset="1" style="stop-color:#60A5AC"/>
	</linearGradient>
	<path class="st41" d="M3437.1,735c0,0-71.4,50.9-106.5,60.5"/>
</g>
<g>
	<path class="st42" d="M3291.5,814.7l-0.6-4c99.2-13.6,192.6-165.9,193.4-167.5l3.5,2.1C3487,646.9,3392.8,800.8,3291.5,814.7z"/>
	
		<linearGradient id="SVGID_41_" gradientUnits="userSpaceOnUse" x1="3475.1899" y1="359.5402" x2="3497.1301" y2="359.5402" gradientTransform="matrix(1 0 0 -1 0 1000)">
		<stop  offset="0" style="stop-color:#FF7478"/>
		<stop  offset="1" style="stop-color:#FFBE95"/>
	</linearGradient>
	<circle class="st43" cx="3486.1" cy="640.5" r="10.9"/>
	
		<linearGradient id="SVGID_42_" gradientUnits="userSpaceOnUse" x1="3492.3245" y1="325.6235" x2="3514.0496" y2="325.6235" gradientTransform="matrix(1 0 0 -1 0 1000)">
		<stop  offset="0" style="stop-color:#7153C0"/>
		<stop  offset="0.4592" style="stop-color:#5B2FA5"/>
		<stop  offset="1" style="stop-color:#77449C"/>
	</linearGradient>
	<path class="st44" d="M3463.5,677.7c0,0,12.4-10.9,28.2-10.3s19.9,4.5,19.6,7.5c-0.4,3-11.7,6.9-25.2,6.6
		C3472.8,681.2,3463.5,677.7,3463.5,677.7z"/>
	
		<linearGradient id="SVGID_43_" gradientUnits="userSpaceOnUse" x1="3453.3645" y1="327.6945" x2="3459.936" y2="327.6945" gradientTransform="matrix(1 0 0 -1 0 1000)">
		<stop  offset="0" style="stop-color:#7153C0"/>
		<stop  offset="0.4592" style="stop-color:#5B2FA5"/>
		<stop  offset="1" style="stop-color:#77449C"/>
	</linearGradient>
	<path class="st45" d="M3450.8,694.6c0,0-6.6-5.6-6.1-20.1c0.4-14.5,6.2-24.8,10-24.4c3.8,0.4,5.3,9.5,4,17.4
		c-1.3,7.9-4,20.1-4.9,23.2S3450.8,694.6,3450.8,694.6z"/>
	
		<linearGradient id="SVGID_44_" gradientUnits="userSpaceOnUse" x1="3456.1489" y1="273.1652" x2="3476.1433" y2="273.1652" gradientTransform="matrix(1 0 0 -1 0 1000)">
		<stop  offset="0" style="stop-color:#7153C0"/>
		<stop  offset="0.4592" style="stop-color:#5B2FA5"/>
		<stop  offset="1" style="stop-color:#77449C"/>
	</linearGradient>
	<path class="st46" d="M3429.6,722.4c0,0,3.4-4.5,17-4c13.6,0.5,28.4,8.5,27,14c-1.5,5.5-19.3,2.1-27.1,0
		C3438.5,730.3,3429.6,722.4,3429.6,722.4z"/>
	
		<linearGradient id="SVGID_45_" gradientUnits="userSpaceOnUse" x1="3407.3064" y1="288.8207" x2="3403.2744" y2="310.6791" gradientTransform="matrix(1 0 0 -1 0 1000)">
		<stop  offset="0" style="stop-color:#7153C0"/>
		<stop  offset="0.4592" style="stop-color:#5B2FA5"/>
		<stop  offset="1" style="stop-color:#77449C"/>
	</linearGradient>
	<path class="st47" d="M3404.3,744.6c0,0-3.4-5.1-3.4-20.5s-0.9-31.4,3.4-33.3c4.3-1.9,12.9,8.5,12.9,21.9
		C3417.3,726,3413.1,741.2,3404.3,744.6z"/>
	
		<linearGradient id="SVGID_46_" gradientUnits="userSpaceOnUse" x1="3421.6399" y1="225.4631" x2="3438.4053" y2="220.5821" gradientTransform="matrix(1 0 0 -1 0 1000)">
		<stop  offset="0" style="stop-color:#7153C0"/>
		<stop  offset="0.4592" style="stop-color:#5B2FA5"/>
		<stop  offset="1" style="stop-color:#77449C"/>
	</linearGradient>
	<path class="st48" d="M3383.8,765.4c0,0,6.9-3.5,19.9-3.2c13,0.4,25.7,4.9,30.8,11.1c5.1,6.2,3.8,11.1-10.2,9.7
		C3410.3,781.8,3377.5,770.9,3383.8,765.4z"/>
	
		<linearGradient id="SVGID_47_" gradientUnits="userSpaceOnUse" x1="3359.2559" y1="260.9808" x2="3359.6802" y2="276.4726" gradientTransform="matrix(1 0 0 -1 0 1000)">
		<stop  offset="0" style="stop-color:#7153C0"/>
		<stop  offset="0.4592" style="stop-color:#5B2FA5"/>
		<stop  offset="1" style="stop-color:#77449C"/>
	</linearGradient>
	<path class="st49" d="M3364.8,778.4c0,0-15.1-12.3-16.5-29.7c-1.5-17.4,5.3-25.9,9.4-25.4c4,0.4,12.3,11.4,12.2,28.4
		C3369.5,768.7,3370.2,775.9,3364.8,778.4z"/>
</g>
<text transform="matrix(1 0 0 1 291.4873 709.6306)" class="st50 st51 st52">ikeepfit</text>
</svg>
