<?xml version="1.0" encoding="utf-8"?>
<!-- Generator: Adobe Illustrator 22.0.0, SVG Export Plug-In . SVG Version: 6.00 Build 0)  -->
<svg version="1.1" id="图层_1" xmlns="http://www.w3.org/2000/svg" xmlns:xlink="http://www.w3.org/1999/xlink" x="0px" y="0px"
	 viewBox="0 0 232 68" style="enable-background:new 0 0 232 68;" xml:space="preserve">
<style type="text/css">
	.st0{fill:#2D89EF;}
	.st1{fill:#FFFFFF;}
	.st2{fill:#4A4A4A;}
	.st3{font-family:'STHupo';}
	.st4{font-size:44.4901px;}
</style>
<title>tabler</title>
<desc>Created with Sketch.</desc>
<g id="Page-1">
	<g id="tabler_1_">
		<g id="logo" transform="translate(2.000000, 2.000000)">
			<g id="Group">
				<path id="Shape" class="st0" d="M62.6,14.2C61,7.9,56.1,3,49.8,1.4C38-0.5,26-0.5,14.2,1.4C7.9,3,3,7.9,1.4,14.2
					C-0.5,26-0.5,38,1.4,49.8C3,56.1,7.9,61,14.2,62.6c11.8,1.9,23.8,1.9,35.6,0C56.1,61,61,56.1,62.6,49.8
					C64.5,38,64.5,26,62.6,14.2z"/>
				<path id="Path" class="st1" d="M31.3,34.3c-2.8,4.4-6.6,8.2-11.1,11c-1.5,0.9-3.3,0.9-4.8,0.1c-1.5-0.8-2.4-2.3-2.5-4
					s0.9-3.2,2.4-4.1c2.3-1.4,4.4-3.2,6.1-5.3c-1.8-2-3.8-3.8-6.1-5.3c-2.3-1.3-3-4.2-1.7-6.4c1.3-2.2,4.3-2.9,6.5-1.6
					c4.5,2.8,8.3,6.5,11.1,10.9C32.2,31,32.2,32.9,31.3,34.3z"/>
				<path id="Path_1_" class="st1" d="M47.2,44H35.8c-2.1,0-3.8-1-3.8-3s1.7-3,3.8-3h11.4c2.1,0,3.8,1,3.8,3S49.3,44,47.2,44z"/>
			</g>
			<text transform="matrix(1 0 0 1 72.999 48.5)" class="st2 st3 st4">ikeepfit</text>
		</g>
	</g>
</g>
</svg>
